<?xml version="1.0" encoding="utf-8"?>
<!-- Generator: Adobe Illustrator 21.0.0, SVG Export Plug-In . SVG Version: 6.00 Build 0)  -->
<!DOCTYPE svg PUBLIC "-//W3C//DTD SVG 1.0//EN" "http://www.w3.org/TR/2001/REC-SVG-20010904/DTD/svg10.dtd" [
	<!ENTITY st0 "fill-rule:evenodd;clip-rule:evenodd;fill:#F8F8F8;">
	<!ENTITY st1 "fill-rule:evenodd;clip-rule:evenodd;fill:#4DBEF9;">
	<!ENTITY st2 "opacity:0.2;">
	<!ENTITY st3 "fill-rule:evenodd;clip-rule:evenodd;">
	<!ENTITY st4 "fill-rule:evenodd;clip-rule:evenodd;fill:#FFFFFF;">
]>
<svg version="1.0" id="图层_1" xmlns="http://www.w3.org/2000/svg" xmlns:xlink="http://www.w3.org/1999/xlink" x="0px" y="0px"
	 viewBox="0 0 120 120" style="enable-background:new 0 0 120 120;" xml:space="preserve">
<circle style="&st0;" cx="60" cy="60" r="60"/>
<circle style="&st1;" cx="60" cy="60" r="50"/>
<g style="&st2;">
	<path style="&st3;" d="M56.7,51.2c0-4.6-3.8-8.3-8.4-8.3c-4.6,0-8.4,3.7-8.4,8.3c0,2.2,0.9,4.3,2.3,5.8c-0.4,1.6-0.6,3.4-0.6,5.1
		c0,7.9,4.2,14.9,10.5,18.8l1.7-6.9c-3.4-2.9-5.6-7.2-5.6-11.9c0-0.9,0.1-1.7,0.2-2.6C53,59.5,56.7,55.8,56.7,51.2L56.7,51.2
		L56.7,51.2L56.7,51.2L56.7,51.2z M63.9,46.5c2.9,0,5.6,0.8,7.9,2.1c-0.4,0.9-0.6,2-0.6,3c0,4.6,3.8,8.3,8.4,8.3s8.4-3.7,8.4-8.3
		c0-4.6-3.7-8.3-8.4-8.3c-1.1,0-2.1,0.2-3.1,0.6c-3.6-2.5-7.9-4-12.7-4c-3.2,0-6.2,0.7-9,1.9l3.8,5.5C60.4,46.8,62.1,46.5,63.9,46.5
		L63.9,46.5L63.9,46.5L63.9,46.5L63.9,46.5z M79.5,62.8c-0.2,5.7-3.6,10.6-8.3,13.1c-1.4-2.7-4.2-4.6-7.5-4.6
		c-4.6,0-8.4,3.7-8.4,8.3c0,4.6,3.8,8.3,8.4,8.3c3.5,0,6.4-2.1,7.7-5.1c8.5-3.1,14.6-11.2,14.6-20.8c0-0.5,0-1-0.1-1.5L79.5,62.8
		L79.5,62.8L79.5,62.8L79.5,62.8L79.5,62.8z"/>
</g>
<g>
	<path style="&st4;" d="M52.7,47.2c0-4.6-3.8-8.3-8.4-8.3c-4.6,0-8.4,3.7-8.4,8.3c0,2.2,0.9,4.3,2.3,5.8c-0.4,1.6-0.6,3.4-0.6,5.1
		c0,7.9,4.2,14.9,10.5,18.8l1.7-6.9c-3.4-2.9-5.6-7.2-5.6-11.9c0-0.9,0.1-1.7,0.2-2.6C49,55.5,52.7,51.8,52.7,47.2L52.7,47.2
		L52.7,47.2L52.7,47.2L52.7,47.2z M59.9,42.5c2.9,0,5.6,0.8,7.9,2.1c-0.4,0.9-0.6,2-0.6,3c0,4.6,3.8,8.3,8.4,8.3s8.4-3.7,8.4-8.3
		c0-4.6-3.7-8.3-8.4-8.3c-1.1,0-2.1,0.2-3.1,0.6c-3.6-2.5-7.9-4-12.7-4c-3.2,0-6.2,0.7-9,1.9l3.8,5.5C56.4,42.8,58.1,42.5,59.9,42.5
		L59.9,42.5L59.9,42.5L59.9,42.5L59.9,42.5z M75.5,58.8c-0.2,5.7-3.6,10.6-8.3,13.1c-1.4-2.7-4.2-4.6-7.5-4.6
		c-4.6,0-8.4,3.7-8.4,8.3c0,4.6,3.8,8.3,8.4,8.3c3.5,0,6.4-2.1,7.7-5.1c8.5-3.1,14.6-11.2,14.6-20.8c0-0.5,0-1-0.1-1.5L75.5,58.8
		L75.5,58.8L75.5,58.8L75.5,58.8L75.5,58.8z"/>
</g>
</svg>
