<?xml version="1.0" encoding="utf-8"?>
<!-- Generator: Adobe Illustrator 21.0.0, SVG Export Plug-In . SVG Version: 6.00 Build 0)  -->
<!DOCTYPE svg PUBLIC "-//W3C//DTD SVG 1.0//EN" "http://www.w3.org/TR/2001/REC-SVG-20010904/DTD/svg10.dtd" [
	<!ENTITY st0 "fill-rule:evenodd;clip-rule:evenodd;fill:#F8F8F8;">
	<!ENTITY st1 "fill-rule:evenodd;clip-rule:evenodd;fill:#77C659;">
	<!ENTITY st2 "opacity:0.2;">
	<!ENTITY st3 "fill-rule:evenodd;clip-rule:evenodd;">
	<!ENTITY st4 "fill-rule:evenodd;clip-rule:evenodd;fill:#FFFFFF;">
]>
<svg version="1.0" id="图层_1" xmlns="http://www.w3.org/2000/svg" xmlns:xlink="http://www.w3.org/1999/xlink" x="0px" y="0px"
	 viewBox="0 0 120 120" style="enable-background:new 0 0 120 120;" xml:space="preserve">
<circle style="&st0;" cx="60" cy="60" r="60"/>
<circle style="&st1;" cx="60" cy="60" r="50"/>
<g style="&st2;">
	<path style="&st3;" d="M85.9,53.5c1.4-1.5,1.4-3.8,0-5.3L79,41.1c-1.4-1.5-3.7-1.5-5.1,0l-7.1,7.2l12,12.4L85.9,53.5L85.9,53.5z
		 M45.7,70c-0.7,0.8-1.3,1.7-1.6,2.7l-3,11.2c-0.6,1.9,1.2,3.8,3.1,3.2l10.9-3.1c1-0.3,1.9-0.9,2.6-1.6l2.7-2.8l-12-12.4L45.7,70
		L45.7,70z M54.3,41.9c-1.5-1.6-4.1-1.6-5.6,0l-6.5,6.7c-1.5,1.6-1.5,4.2,0,5.8l3.1,3.2l5.7-5.9c0.8-0.8,2-0.8,2.8,0
		c0.8,0.8,0.8,2.1,0,2.9L48,60.4l2.8,2.9l3.4-3.5c0.8-0.8,2-0.8,2.8,0c0.8,0.8,0.8,2.1,0,2.9l-3.4,3.5l2.8,2.9l5.7-5.9
		c0.8-0.8,2-0.8,2.8,0c0.8,0.8,0.8,2.1,0,2.9l-5.7,5.9l2.8,2.9l0,0l3.4-3.5c0.8-0.8,2-0.8,2.8,0c0.8,0.8,0.8,2.1,0,2.9l-3.4,3.5
		c0,0,0,0,0,0l2.8,2.9l5.7-5.9c0.8-0.8,2-0.8,2.8,0c0.8,0.8,0.8,2.1,0,2.9l-5.7,5.9l3.4,3.5c1.5,1.6,4.1,1.6,5.6,0l6.5-6.7
		c1.5-1.6,1.5-4.2,0-5.8L54.3,41.9L54.3,41.9z"/>
</g>
<g>
	<path style="&st4;" d="M81.9,49.5c1.4-1.5,1.4-3.8,0-5.3L75,37.1c-1.4-1.5-3.7-1.5-5.1,0l-7.1,7.2l12,12.4L81.9,49.5L81.9,49.5z
		 M41.7,66c-0.7,0.8-1.3,1.7-1.6,2.7l-3,11.2c-0.6,1.9,1.2,3.8,3.1,3.2l10.9-3.1c1-0.3,1.9-0.9,2.6-1.6l2.7-2.8l-12-12.4L41.7,66
		L41.7,66z M50.3,37.9c-1.5-1.6-4.1-1.6-5.6,0l-6.5,6.7c-1.5,1.6-1.5,4.2,0,5.8l3.1,3.2l5.7-5.9c0.8-0.8,2-0.8,2.8,0
		c0.8,0.8,0.8,2.1,0,2.9L44,56.4l2.8,2.9l3.4-3.5c0.8-0.8,2-0.8,2.8,0c0.8,0.8,0.8,2.1,0,2.9l-3.4,3.5l2.8,2.9l5.7-5.9
		c0.8-0.8,2-0.8,2.8,0c0.8,0.8,0.8,2.1,0,2.9l-5.7,5.9l2.8,2.9l0,0l3.4-3.5c0.8-0.8,2-0.8,2.8,0c0.8,0.8,0.8,2.1,0,2.9l-3.4,3.5
		c0,0,0,0,0,0l2.8,2.9l5.7-5.9c0.8-0.8,2-0.8,2.8,0c0.8,0.8,0.8,2.1,0,2.9l-5.7,5.9l3.4,3.5c1.5,1.6,4.1,1.6,5.6,0l6.5-6.7
		c1.5-1.6,1.5-4.2,0-5.8L50.3,37.9L50.3,37.9z"/>
</g>
</svg>
