<?xml version="1.0" encoding="utf-8"?>
<!-- Generator: Adobe Illustrator 21.0.0, SVG Export Plug-In . SVG Version: 6.00 Build 0)  -->
<!DOCTYPE svg PUBLIC "-//W3C//DTD SVG 1.0//EN" "http://www.w3.org/TR/2001/REC-SVG-20010904/DTD/svg10.dtd" [
	<!ENTITY st0 "fill-rule:evenodd;clip-rule:evenodd;fill:#F8F8F8;">
	<!ENTITY st1 "fill-rule:evenodd;clip-rule:evenodd;fill:#528EE0;">
	<!ENTITY st2 "opacity:0.2;">
	<!ENTITY st3 "fill-rule:evenodd;clip-rule:evenodd;">
	<!ENTITY st4 "fill-rule:evenodd;clip-rule:evenodd;fill:#FFFFFF;">
]>
<svg version="1.0" id="图层_1" xmlns="http://www.w3.org/2000/svg" xmlns:xlink="http://www.w3.org/1999/xlink" x="0px" y="0px"
	 viewBox="0 0 120 120" style="enable-background:new 0 0 120 120;" xml:space="preserve">
<circle style="&st0;" cx="60" cy="60" r="60"/>
<circle style="&st1;" cx="60" cy="60" r="50"/>
<g style="&st2;">
	<path style="&st3;" d="M60.6,40h8.6c0.1,0,0.2,0.1,0.2,0.2l0.2,1.4l0.6,3.8c0,0.1,0.1,0.2,0.2,0.2h8.2c0.1,0,0.2,0.1,0.2,0.2v4.6
		c0,0.1-0.1,0.2-0.1,0.2l-1,0.5l-6,2.9c-0.1,0-0.1,0.1-0.1,0.3l0.6,3.7c0,0.1,0.1,0.2,0.2,0.2h11.1c0.1,0,0.2,0.1,0.2,0.2v5.3
		c0,0.1-0.1,0.2-0.1,0.2l-1,0.5l-8.5,4.2c-0.1,0-0.1,0.1-0.1,0.3l2,12.3c0,0.1,0.1,0.2,0.2,0.2h6.8c0.1,0,0.2,0.1,0.2,0.2v6.1
		c0,0.1-0.1,0.2-0.2,0.2H44.5c-0.1,0-0.2-0.1-0.2-0.2v-6.1c0-0.1,0.1-0.2,0.2-0.2h7.3c0.1,0,0.2-0.1,0.2-0.2l2-12.2
		c0-0.1,0-0.2-0.1-0.3l-8.8-4.3l-1-0.5c-0.1,0-0.1-0.1-0.1-0.2v-5.3c0-0.1,0.1-0.2,0.2-0.2h11.4c0.1,0,0.2-0.1,0.2-0.2l0.6-3.7
		c0-0.1,0-0.2-0.1-0.3l-6.3-3l-1-0.5c-0.1,0-0.1-0.1-0.1-0.2v-4.6c0-0.1,0.1-0.2,0.2-0.2h8.5c0.1,0,0.2-0.1,0.2-0.2l0.6-3.8l0.2-1.4
		c0-0.1,0.1-0.2,0.2-0.2H60.6L60.6,40z M70.5,70.6L62,74.4c-0.2,0.1-0.2,0.5,0.1,0.5h8.8c0.2,0,0.3-0.1,0.2-0.3L70.5,70.6L70.5,70.6
		z M71.6,77.5L61.4,81c-0.3,0.1-0.2,0.5,0.1,0.5H72c0.2,0,0.3-0.1,0.2-0.3L71.6,77.5L71.6,77.5z M56.2,80.7l10.1-3.5
		c0.3-0.1,0.2-0.5-0.1-0.5H57c-0.1,0-0.2,0.1-0.2,0.2L56.2,80.7L56.2,80.7z M57.2,74.3l9.6-4.2c0.2-0.1,0.2-0.5-0.1-0.5h-8.5
		c-0.1,0-0.2,0.1-0.2,0.2L57.2,74.3L57.2,74.3z M71,49.5l0,0.3c0,0.2,0.2,0.2,0.3,0.2l0,0c0.2-0.1,0.1-0.5-0.1-0.5H71L71,49.5z
		 M57.2,50.2l0.1-0.4c0-0.1-0.1-0.3-0.2-0.3h-0.2c-0.3,0-0.3,0.3-0.1,0.5L57.2,50.2L57.2,50.2z M62,45.6h4c0.2,0,0.3-0.1,0.2-0.3
		l-0.2-1.2c0-0.1-0.1-0.2-0.2-0.2h-3.3c-0.1,0-0.2,0.1-0.2,0.2L62,45.6L62,45.6z M67.9,54.9h-7.2c-0.1,0-0.2,0.1-0.2,0.2L59.9,58
		c0,0.1,0.1,0.3,0.2,0.3h8c0.2,0,0.3-0.1,0.2-0.3L67.9,54.9L67.9,54.9z M67,49.5h-5.4c-0.1,0-0.2,0.1-0.2,0.2l-0.2,1
		c0,0.1,0.1,0.3,0.2,0.3h5.5c0.2,0,0.3-0.1,0.2-0.3L67,49.5L67,49.5z M73.1,62.2l0.4,2.2c0,0.2,0.2,0.2,0.3,0.2l4-2
		c0.2-0.1,0.1-0.5-0.1-0.5H73.1L73.1,62.2z M54.8,64.8l0.4-2.4c0-0.1-0.1-0.3-0.2-0.3h-4.6c-0.3,0-0.3,0.3-0.1,0.5L54.8,64.8
		L54.8,64.8z M69.1,62.2h-9.6c-0.1,0-0.2,0.1-0.2,0.2l-0.5,3c0,0.1,0.1,0.3,0.2,0.3h10.4c0.2,0,0.3-0.1,0.2-0.3L69.1,62.2L69.1,62.2
		z"/>
</g>
<g>
	<path style="&st4;" d="M56.6,36h8.6c0.1,0,0.2,0.1,0.2,0.2l0.2,1.4l0.6,3.8c0,0.1,0.1,0.2,0.2,0.2h8.2c0.1,0,0.2,0.1,0.2,0.2v4.6
		c0,0.1-0.1,0.2-0.1,0.2l-1,0.5l-6,2.9c-0.1,0-0.1,0.1-0.1,0.3l0.6,3.7c0,0.1,0.1,0.2,0.2,0.2h11.1c0.1,0,0.2,0.1,0.2,0.2v5.3
		c0,0.1-0.1,0.2-0.1,0.2l-1,0.5l-8.5,4.2c-0.1,0-0.1,0.1-0.1,0.3l2,12.3c0,0.1,0.1,0.2,0.2,0.2h6.8c0.1,0,0.2,0.1,0.2,0.2v6.1
		c0,0.1-0.1,0.2-0.2,0.2H40.5c-0.1,0-0.2-0.1-0.2-0.2v-6.1c0-0.1,0.1-0.2,0.2-0.2h7.3c0.1,0,0.2-0.1,0.2-0.2l2-12.2
		c0-0.1,0-0.2-0.1-0.3l-8.8-4.3l-1-0.5c-0.1,0-0.1-0.1-0.1-0.2v-5.3c0-0.1,0.1-0.2,0.2-0.2h11.4c0.1,0,0.2-0.1,0.2-0.2l0.6-3.7
		c0-0.1,0-0.2-0.1-0.3l-6.3-3l-1-0.5c-0.1,0-0.1-0.1-0.1-0.2v-4.6c0-0.1,0.1-0.2,0.2-0.2h8.5c0.1,0,0.2-0.1,0.2-0.2l0.6-3.8l0.2-1.4
		c0-0.1,0.1-0.2,0.2-0.2H56.6L56.6,36z M66.5,66.6L58,70.4c-0.2,0.1-0.2,0.5,0.1,0.5h8.8c0.2,0,0.3-0.1,0.2-0.3L66.5,66.6L66.5,66.6
		z M67.6,73.5L57.4,77c-0.3,0.1-0.2,0.5,0.1,0.5H68c0.2,0,0.3-0.1,0.2-0.3L67.6,73.5L67.6,73.5z M52.2,76.7l10.1-3.5
		c0.3-0.1,0.2-0.5-0.1-0.5H53c-0.1,0-0.2,0.1-0.2,0.2L52.2,76.7L52.2,76.7z M53.2,70.3l9.6-4.2c0.2-0.1,0.2-0.5-0.1-0.5h-8.5
		c-0.1,0-0.2,0.1-0.2,0.2L53.2,70.3L53.2,70.3z M67,45.5l0,0.3c0,0.2,0.2,0.2,0.3,0.2l0,0c0.2-0.1,0.1-0.5-0.1-0.5H67L67,45.5z
		 M53.2,46.2l0.1-0.4c0-0.1-0.1-0.3-0.2-0.3h-0.2c-0.3,0-0.3,0.3-0.1,0.5L53.2,46.2L53.2,46.2z M58,41.6h4c0.2,0,0.3-0.1,0.2-0.3
		l-0.2-1.2c0-0.1-0.1-0.2-0.2-0.2h-3.3c-0.1,0-0.2,0.1-0.2,0.2L58,41.6L58,41.6z M63.9,50.9h-7.2c-0.1,0-0.2,0.1-0.2,0.2L55.9,54
		c0,0.1,0.1,0.3,0.2,0.3h8c0.2,0,0.3-0.1,0.2-0.3L63.9,50.9L63.9,50.9z M63,45.5h-5.4c-0.1,0-0.2,0.1-0.2,0.2l-0.2,1
		c0,0.1,0.1,0.3,0.2,0.3h5.5c0.2,0,0.3-0.1,0.2-0.3L63,45.5L63,45.5z M69.1,58.2l0.4,2.2c0,0.2,0.2,0.2,0.3,0.2l4-2
		c0.2-0.1,0.1-0.5-0.1-0.5H69.1L69.1,58.2z M50.8,60.8l0.4-2.4c0-0.1-0.1-0.3-0.2-0.3h-4.6c-0.3,0-0.3,0.3-0.1,0.5L50.8,60.8
		L50.8,60.8z M65.1,58.2h-9.6c-0.1,0-0.2,0.1-0.2,0.2l-0.5,3c0,0.1,0.1,0.3,0.2,0.3h10.4c0.2,0,0.3-0.1,0.2-0.3L65.1,58.2L65.1,58.2
		z"/>
</g>
</svg>
