<?xml version="1.0" encoding="utf-8"?>
<!-- Generator: Adobe Illustrator 21.0.0, SVG Export Plug-In . SVG Version: 6.00 Build 0)  -->
<!DOCTYPE svg PUBLIC "-//W3C//DTD SVG 1.0//EN" "http://www.w3.org/TR/2001/REC-SVG-20010904/DTD/svg10.dtd" [
	<!ENTITY st0 "fill-rule:evenodd;clip-rule:evenodd;fill:#F8F8F8;">
	<!ENTITY st1 "fill-rule:evenodd;clip-rule:evenodd;fill:#FE7108;">
	<!ENTITY st2 "opacity:0.2;">
	<!ENTITY st3 "fill-rule:evenodd;clip-rule:evenodd;">
	<!ENTITY st4 "fill-rule:evenodd;clip-rule:evenodd;fill:#FFFFFF;">
]>
<svg version="1.0" id="图层_1" xmlns="http://www.w3.org/2000/svg" xmlns:xlink="http://www.w3.org/1999/xlink" x="0px" y="0px"
	 viewBox="0 0 120 120" style="enable-background:new 0 0 120 120;" xml:space="preserve">
<circle style="&st0;" cx="60" cy="60" r="60"/>
<circle style="&st1;" cx="60" cy="60" r="50"/>
<g style="&st2;">
	<path style="&st3;" d="M86.6,40.5H54.2c-1.3,0-2.4,1.2-2.4,2.5v23.5c0,1.3,1.1,2.5,2.4,2.5h21.6l5.5,4.8c0.4,0.4,1,0.7,1.6,0.7
		c0,0,0,0,0,0c0.6,0,1.2-0.3,1.6-0.7c0,0,0,0,0,0c0.1-0.1,0.2-0.2,0.3-0.3c0,0,0-0.1,0.1-0.1c0-0.1,0.1-0.2,0.1-0.3c0,0,0-0.1,0-0.1
		c0-0.1,0.1-0.2,0.1-0.3c0-0.2,0-0.3,0-0.5v-3.9h1.5c1.3,0,2.3-1,2.3-2.3V42.8C89,41.5,87.9,40.5,86.6,40.5L86.6,40.5z M60.2,55.3
		c-1.3,0-2.4-1.1-2.4-2.5c0-1.4,1.1-2.5,2.4-2.5c1.3,0,2.4,1.1,2.4,2.5C62.6,54.2,61.5,55.3,60.2,55.3L60.2,55.3z M69.8,55.3
		c-1.3,0-2.4-1.1-2.4-2.5c0-1.4,1.1-2.5,2.4-2.5c1.3,0,2.4,1.1,2.4,2.5C72.2,54.2,71.1,55.3,69.8,55.3L69.8,55.3z M79.4,55.3
		c-1.3,0-2.4-1.1-2.4-2.5c0-1.4,1.1-2.5,2.4-2.5c1.3,0,2.4,1.1,2.4,2.5C81.8,54.2,80.7,55.3,79.4,55.3L79.4,55.3z M79.7,75.4
		l-5.1-5.2H54.2c-2.5,0-3.6-1.2-3.6-3.7V50.4h-7.2c-1.3,0-2.4,0.4-2.4,1.7c0,2.1,0,1.2,0,0.8v24.7c0,1.3,1.2,2.4,2.4,2.5
		c0,0.2,2.4,0,2.4,0l0.5,5.1c0,0.2,0,0.3,0,0.5c0,0.1,0.1,0.2,0.1,0.3c0,0,0,0.1,0,0.1c0,0.1,0.1,0.2,0.1,0.3c0,0,0,0.1,0.1,0.1
		c0.1,0.1,0.2,0.2,0.3,0.3c0,0,0,0,0,0c0.4,0.4,1,0.7,1.6,0.7c0,0,0,0,0,0c0.6,0,1.2-0.3,1.6-0.7l6.4-6.7h24c1.3,0,2.3-0.5,2.3-1.8
		v-1.5C81.7,76.7,80.6,76.2,79.7,75.4L79.7,75.4L79.7,75.4z"/>
</g>
<g>
	<path style="&st4;" d="M81.6,36.5H49.2c-1.3,0-2.4,1.2-2.4,2.5v23.5c0,1.3,1.1,2.5,2.4,2.5h21.6l5.5,4.8c0.4,0.4,1,0.7,1.6,0.7
		c0,0,0,0,0,0c0.6,0,1.2-0.3,1.6-0.7c0,0,0,0,0,0c0.1-0.1,0.2-0.2,0.3-0.3c0,0,0-0.1,0.1-0.1c0-0.1,0.1-0.2,0.1-0.3c0,0,0-0.1,0-0.1
		c0-0.1,0.1-0.2,0.1-0.3c0-0.2,0-0.3,0-0.5v-3.9h1.5c1.3,0,2.3-1,2.3-2.3V38.8C84,37.5,82.9,36.5,81.6,36.5L81.6,36.5z M55.2,51.3
		c-1.3,0-2.4-1.1-2.4-2.5c0-1.4,1.1-2.5,2.4-2.5c1.3,0,2.4,1.1,2.4,2.5C57.6,50.2,56.5,51.3,55.2,51.3L55.2,51.3z M64.8,51.3
		c-1.3,0-2.4-1.1-2.4-2.5c0-1.4,1.1-2.5,2.4-2.5c1.3,0,2.4,1.1,2.4,2.5C67.2,50.2,66.1,51.3,64.8,51.3L64.8,51.3z M74.4,51.3
		c-1.3,0-2.4-1.1-2.4-2.5c0-1.4,1.1-2.5,2.4-2.5c1.3,0,2.4,1.1,2.4,2.5C76.8,50.2,75.7,51.3,74.4,51.3L74.4,51.3z M74.7,71.4
		l-5.1-5.2H49.2c-2.5,0-3.6-1.2-3.6-3.7V46.4h-7.2c-1.3,0-2.4,0.4-2.4,1.7c0,2.1,0,1.2,0,0.8v24.7c0,1.3,1.2,2.4,2.4,2.5
		c0,0.2,2.4,0,2.4,0l0.5,5.1c0,0.2,0,0.3,0,0.5c0,0.1,0.1,0.2,0.1,0.3c0,0,0,0.1,0,0.1c0,0.1,0.1,0.2,0.1,0.3c0,0,0,0.1,0.1,0.1
		c0.1,0.1,0.2,0.2,0.3,0.3c0,0,0,0,0,0c0.4,0.4,1,0.7,1.6,0.7c0,0,0,0,0,0c0.6,0,1.2-0.3,1.6-0.7l6.4-6.7h24c1.3,0,2.3-0.5,2.3-1.8
		v-1.5C76.7,72.7,75.6,72.2,74.7,71.4L74.7,71.4L74.7,71.4z"/>
</g>
</svg>
