<?xml version="1.0" encoding="utf-8"?>
<!-- Generator: Adobe Illustrator 21.0.0, SVG Export Plug-In . SVG Version: 6.00 Build 0)  -->
<!DOCTYPE svg PUBLIC "-//W3C//DTD SVG 1.0//EN" "http://www.w3.org/TR/2001/REC-SVG-20010904/DTD/svg10.dtd" [
	<!ENTITY st0 "fill-rule:evenodd;clip-rule:evenodd;fill:#F8F8F8;">
	<!ENTITY st1 "fill-rule:evenodd;clip-rule:evenodd;fill:#E96262;">
	<!ENTITY st2 "opacity:0.2;">
	<!ENTITY st3 "fill-rule:evenodd;clip-rule:evenodd;">
	<!ENTITY st4 "fill-rule:evenodd;clip-rule:evenodd;fill:#FFFFFF;">
]>
<svg version="1.0" id="图层_1" xmlns="http://www.w3.org/2000/svg" xmlns:xlink="http://www.w3.org/1999/xlink" x="0px" y="0px"
	 viewBox="0 0 120 120" style="enable-background:new 0 0 120 120;" xml:space="preserve">
<circle style="&st0;" cx="60" cy="60" r="60"/>
<circle style="&st1;" cx="60" cy="60" r="50"/>
<g style="&st2;">
	<path style="&st3;" d="M78.9,77.9c-2.4,0-4.3,1.7-4.9,3.9H58.4c-0.3-1.2-1-2.3-1.9-3.1l2-6.2h24.7L88,51l-39-5.3l-3.1-2.1
		c0.1-0.2,0.1-0.4,0.1-0.7c0-1.7-1.3-3-3-3c-1.7,0-3,1.3-3,3c0,1.7,1.3,3,3,3c0.2,0,0.4-0.1,0.6-0.1l3.7,2.5l6.1,24.2h1.8l-1.6,5.2
		c-0.1,0-0.1,0-0.2,0c-2.8,0-5.1,2.3-5.1,5.2c0,2.8,2.3,5.2,5.1,5.2c2.1,0,3.9-1.3,4.7-3.1h16.2c0.8,1.8,2.5,3.1,4.6,3.1
		c2.8,0,5-2.3,5-5C83.9,80.2,81.7,77.9,78.9,77.9L78.9,77.9z"/>
</g>
<g>
	<path style="&st4;" d="M74.9,73.9c-2.4,0-4.3,1.7-4.9,3.9H54.4c-0.3-1.2-1-2.3-1.9-3.1l2-6.2h24.7L84,47l-39-5.3l-3.1-2.1
		c0.1-0.2,0.1-0.4,0.1-0.7c0-1.7-1.3-3-3-3c-1.7,0-3,1.3-3,3c0,1.7,1.3,3,3,3c0.2,0,0.4-0.1,0.6-0.1l3.7,2.5l6.1,24.2h1.8l-1.6,5.2
		c-0.1,0-0.1,0-0.2,0c-2.8,0-5.1,2.3-5.1,5.2c0,2.8,2.3,5.2,5.1,5.2c2.1,0,3.9-1.3,4.7-3.1h16.2c0.8,1.8,2.5,3.1,4.6,3.1
		c2.8,0,5-2.3,5-5C79.9,76.2,77.7,73.9,74.9,73.9L74.9,73.9z"/>
</g>
</svg>
