<?xml version="1.0" encoding="utf-8"?>
<!-- Generator: Adobe Illustrator 21.0.0, SVG Export Plug-In . SVG Version: 6.00 Build 0)  -->
<!DOCTYPE svg PUBLIC "-//W3C//DTD SVG 1.0//EN" "http://www.w3.org/TR/2001/REC-SVG-20010904/DTD/svg10.dtd" [
	<!ENTITY st0 "fill-rule:evenodd;clip-rule:evenodd;fill:#F8F8F8;">
	<!ENTITY st1 "fill-rule:evenodd;clip-rule:evenodd;fill:#8763D9;">
	<!ENTITY st2 "opacity:0.2;">
	<!ENTITY st3 "fill-rule:evenodd;clip-rule:evenodd;">
	<!ENTITY st4 "fill-rule:evenodd;clip-rule:evenodd;fill:#FFFFFF;">
]>
<svg version="1.0" id="图层_1" xmlns="http://www.w3.org/2000/svg" xmlns:xlink="http://www.w3.org/1999/xlink" x="0px" y="0px"
	 viewBox="0 0 120 120" style="enable-background:new 0 0 120 120;" xml:space="preserve">
<circle style="&st0;" cx="60" cy="60" r="60"/>
<circle style="&st1;" cx="60" cy="60" r="50"/>
<g style="&st2;">
	<path style="&st3;" d="M84.2,59.2h-2.6c-0.4-1.5-1-2.9-1.8-4.2l1.8-1.8c1.5-1.5,1.5-3.9,0-5.4l-1.4-1.4c-1.5-1.5-3.9-1.5-5.4,0
		l-1.8,1.8c-1.3-0.8-2.8-1.4-4.3-1.8v-2.6c0-2.1-1.7-3.8-3.8-3.8H63c-2.1,0-3.8,1.7-3.8,3.8v2.6c-1.5,0.4-2.9,1-4.3,1.8l-1.8-1.8
		c-1.5-1.5-3.9-1.5-5.4,0l-1.4,1.4c-1.5,1.5-1.5,3.9,0,5.4l1.8,1.8c-0.8,1.3-1.4,2.8-1.8,4.2h-2.6c-2.1,0-3.8,1.7-3.8,3.8V65
		c0,2.1,1.7,3.8,3.8,3.8h2.6c0.4,1.5,1,2.9,1.8,4.3l-1.8,1.8c-1.5,1.5-1.5,3.9,0,5.4l1.4,1.4c1.5,1.5,3.9,1.5,5.4,0l1.8-1.8
		c1.3,0.8,2.7,1.3,4.2,1.7v2.6c0,2.1,1.7,3.8,3.8,3.8H65c2.1,0,3.8-1.7,3.8-3.8v-2.6c1.5-0.4,2.9-1,4.2-1.8l1.8,1.8
		c1.5,1.5,3.9,1.5,5.4,0l1.4-1.4c1.5-1.5,1.5-3.9,0-5.4l-1.8-1.8c0.8-1.3,1.4-2.8,1.8-4.3h2.6c2.1,0,3.8-1.7,3.8-3.8V63
		C88,60.9,86.3,59.2,84.2,59.2L84.2,59.2z M64,76.5c-6.9,0-12.5-5.6-12.5-12.5c0-6.9,5.6-12.5,12.5-12.5c6.9,0,12.5,5.6,12.5,12.5
		C76.5,70.9,70.9,76.5,64,76.5L64,76.5z"/>
	<path style="&st3;" d="M64,53.5c-5.8,0-10.6,4.7-10.6,10.6c0,5.8,4.7,10.6,10.6,10.6c5.8,0,10.6-4.7,10.6-10.6
		C74.6,58.2,69.8,53.5,64,53.5L64,53.5z M63.9,68.8c-2.7,0-4.8-2.2-4.8-4.8c0-2.7,2.2-4.8,4.8-4.8c2.7,0,4.8,2.2,4.8,4.8
		C68.7,66.7,66.6,68.8,63.9,68.8L63.9,68.8z"/>
	<path style="&st3;" d="M64,63.1c-0.5,0-1,0.4-1,1c0,0.5,0.4,1,1,1c0.5,0,1-0.4,1-1C65,63.5,64.5,63.1,64,63.1L64,63.1z"/>
</g>
<g>
	<path style="&st4;" d="M80.2,55.2h-2.6c-0.4-1.5-1-2.9-1.8-4.2l1.8-1.8c1.5-1.5,1.5-3.9,0-5.4l-1.4-1.4c-1.5-1.5-3.9-1.5-5.4,0
		l-1.8,1.8c-1.3-0.8-2.8-1.4-4.3-1.8v-2.6c0-2.1-1.7-3.8-3.8-3.8H59c-2.1,0-3.8,1.7-3.8,3.8v2.6c-1.5,0.4-2.9,1-4.3,1.8l-1.8-1.8
		c-1.5-1.5-3.9-1.5-5.4,0l-1.4,1.4c-1.5,1.5-1.5,3.9,0,5.4l1.8,1.8c-0.8,1.3-1.4,2.8-1.8,4.2h-2.6c-2.1,0-3.8,1.7-3.8,3.8V61
		c0,2.1,1.7,3.8,3.8,3.8h2.6c0.4,1.5,1,2.9,1.8,4.3l-1.8,1.8c-1.5,1.5-1.5,3.9,0,5.4l1.4,1.4c1.5,1.5,3.9,1.5,5.4,0l1.8-1.8
		c1.3,0.8,2.7,1.3,4.2,1.7v2.6c0,2.1,1.7,3.8,3.8,3.8H61c2.1,0,3.8-1.7,3.8-3.8v-2.6c1.5-0.4,2.9-1,4.2-1.8l1.8,1.8
		c1.5,1.5,3.9,1.5,5.4,0l1.4-1.4c1.5-1.5,1.5-3.9,0-5.4l-1.8-1.8c0.8-1.3,1.4-2.8,1.8-4.3h2.6c2.1,0,3.8-1.7,3.8-3.8V59
		C84,56.9,82.3,55.2,80.2,55.2L80.2,55.2z M60,72.5c-6.9,0-12.5-5.6-12.5-12.5c0-6.9,5.6-12.5,12.5-12.5c6.9,0,12.5,5.6,12.5,12.5
		C72.5,66.9,66.9,72.5,60,72.5L60,72.5z"/>
	<path style="&st4;" d="M60,49.5c-5.8,0-10.6,4.7-10.6,10.6c0,5.8,4.7,10.6,10.6,10.6c5.8,0,10.6-4.7,10.6-10.6
		C70.6,54.2,65.8,49.5,60,49.5L60,49.5z M59.9,64.8c-2.7,0-4.8-2.2-4.8-4.8c0-2.7,2.2-4.8,4.8-4.8c2.7,0,4.8,2.2,4.8,4.8
		C64.7,62.7,62.6,64.8,59.9,64.8L59.9,64.8z"/>
	<path style="&st4;" d="M60,59.1c-0.5,0-1,0.4-1,1c0,0.5,0.4,1,1,1c0.5,0,1-0.4,1-1C61,59.5,60.5,59.1,60,59.1L60,59.1z"/>
</g>
</svg>
